<?xml version="1.0" encoding="UTF-8" standalone="no"?>
<!-- Generator: Adobe Illustrator 16.0.0, SVG Export Plug-In . SVG Version: 6.00 Build 0)  -->

<svg
   version="1.1"
   id="Capa_1"
   x="0px"
   y="0px"
   width="360.00101"
   height="23.514"
   viewBox="0 0 360.00101 23.513999"
   enable-background="new 0 0 451.478 88.495"
   xml:space="preserve"
   sodipodi:docname="ucr_texto_blanco.svg"
   inkscape:version="1.1.2 (b8e25be8, 2022-02-05)"
   xmlns:inkscape="http://www.inkscape.org/namespaces/inkscape"
   xmlns:sodipodi="http://sodipodi.sourceforge.net/DTD/sodipodi-0.dtd"
   xmlns="http://www.w3.org/2000/svg"
   xmlns:svg="http://www.w3.org/2000/svg"><defs
   id="defs1069">
	
	
</defs><sodipodi:namedview
   id="namedview1067"
   pagecolor="#ffffff"
   bordercolor="#666666"
   borderopacity="1.0"
   inkscape:pageshadow="2"
   inkscape:pageopacity="0.0"
   inkscape:pagecheckerboard="0"
   showgrid="false"
   inkscape:zoom="2.7243853"
   inkscape:cx="151.77736"
   inkscape:cy="4.588191"
   inkscape:window-width="1399"
   inkscape:window-height="955"
   inkscape:window-x="0"
   inkscape:window-y="38"
   inkscape:window-maximized="0"
   inkscape:current-layer="Capa_1"
   fit-margin-top="0"
   fit-margin-left="0"
   fit-margin-right="0"
   fit-margin-bottom="0" />
<g
   id="g868"
   style="fill:#ffffff;fill-opacity:1"
   inkscape:export-filename="/Users/fabian/ownCloud/ferias/static/images/logos/ucr_texto_negro.png"
   inkscape:export-xdpi="96"
   inkscape:export-ydpi="96"
   transform="translate(-72.038,-33.794)">
		<path
   d="m 90.494,34.332 -1.056,-0.038 0.073,0.224 c 0.464,1.434 0.65,3.209 0.623,5.939 l -0.033,5.712 c 0,3.25 -0.139,4.471 -0.647,5.675 -0.365,0.823 -1.036,1.562 -1.887,2.079 -1.097,0.63 -2.464,0.963 -3.955,0.963 -2.57,0 -4.739,-1.157 -5.526,-2.947 -0.502,-1.167 -0.617,-2.092 -0.617,-4.946 l 0.063,-6.818 c 0.032,-1.841 0.032,-2.97 0.031,-3.386 0.039,-0.672 0.113,-1.458 0.22,-2.336 l 0.024,-0.196 -1.197,0.075 h -2.924 l -0.899,-0.033 -0.749,1.664 h 0.568 c 0.83,0 1.245,0.255 1.387,0.856 0.162,0.652 0.247,1.779 0.247,3.259 l -0.032,5.8 -0.03,2.384 c -0.032,3.197 0.475,5.015 1.811,6.485 0.67,0.709 1.549,1.278 2.605,1.688 1.317,0.587 2.876,0.873 4.767,0.873 2.512,0 4.612,-0.564 6.243,-1.678 1.965,-1.363 2.97,-3.328 3.16,-6.182 0.062,-0.807 0.094,-1.717 0.094,-2.706 l 0.033,-6.283 c 0.031,-3.055 0.09,-3.703 0.407,-5.97 l 0.027,-0.194 -1.072,0.036 h -1.759 z"
   id="path824"
   style="fill:#ffffff;fill-opacity:1" />
		<path
   d="m 110.671,36.579 -0.896,-0.038 0.077,0.227 c 0.423,1.243 0.675,3.646 0.675,6.426 l -0.027,6.489 0.061,1.44 -8.451,-10.91 c -1.074,-1.386 -1.48,-1.993 -2.418,-3.611 l -0.05,-0.086 -1.484,0.062 h -2.535 l -0.793,-0.032 -0.668,1.485 h 0.527 c 0.706,0 1.058,0.217 1.178,0.728 0.126,0.507 0.188,1.446 0.188,2.873 l -0.029,8.625 v 2.363 c 0,0.653 -0.074,1.271 -0.163,1.961 -0.023,0.243 -0.074,0.652 -0.188,1.216 l -0.042,0.211 0.994,-0.065 h 1.546 l 0.958,0.07 -0.08,-0.235 c -0.394,-1.158 -0.619,-3.16 -0.619,-5.493 l 0.026,-9.183 -0.035,-0.881 1.871,2.446 8.056,10.245 c 0.875,1.119 1.315,1.726 2.367,3.343 l 0.05,0.077 1.208,-0.032 h 1.218 l -0.016,-0.179 c -0.128,-1.442 -0.161,-2.003 -0.232,-3.231 l -0.015,-0.25 c -0.027,-0.685 -0.027,-1.232 -0.027,-1.671 l 0.028,-7.742 c 0,-1.045 0.011,-1.868 0.02,-2.471 0.005,-0.35 0.009,-0.625 0.009,-0.828 0,-0.605 0.043,-1.235 0.135,-1.986 0.03,-0.307 0.094,-0.708 0.189,-1.194 l 0.04,-0.203 -0.993,0.034 z"
   id="path826"
   style="fill:#ffffff;fill-opacity:1" />
		<path
   d="m 119.623,50.641 0.026,-8.983 c 0,-1.879 0.042,-2.716 0.056,-2.929 0.024,-0.417 0.072,-1.005 0.163,-2.029 l 0.017,-0.192 -1.027,0.07 h -2.534 l -0.794,-0.032 -0.668,1.485 h 0.527 c 0.706,0 1.058,0.217 1.178,0.728 0.128,0.512 0.188,1.407 0.188,2.816 l -0.028,9.037 c 0,2.525 -0.027,2.791 -0.19,3.969 -0.023,0.248 -0.072,0.614 -0.164,1.225 l -0.03,0.202 0.957,-0.065 h 1.981 l 0.955,0.069 -0.075,-0.232 c -0.382,-1.183 -0.538,-2.672 -0.538,-5.139 z"
   id="path828"
   style="fill:#ffffff;fill-opacity:1" />
		<path
   d="m 138.081,36.578 h -2.041 l -1.106,-0.035 0.071,0.222 c 0.156,0.485 0.183,0.687 0.183,1.046 0,0.983 -0.323,2.247 -1.081,4.228 l -2.954,7.744 -1.11,2.836 -0.818,-2.581 -3.004,-8.817 c -0.635,-1.826 -0.933,-2.821 -1.032,-3.444 -0.037,-0.168 -0.061,-0.408 -0.091,-0.71 l -0.059,-0.555 -1.104,0.066 h -2.151 l -0.792,-0.032 -0.671,1.485 h 0.528 c 0.625,0 0.881,0.19 1.244,0.923 0.385,0.835 0.738,1.742 1.061,2.597 l 4.423,12.109 c 0.459,1.3 0.539,1.593 0.702,2.608 l 0.024,0.15 0.823,-0.07 1.183,-10e-4 0.724,0.073 0.029,-0.146 c 0.269,-1.351 0.369,-1.658 1.194,-3.649 l 4.611,-11.174 c 0.166,-0.385 0.413,-0.935 0.763,-1.701 0.329,-0.711 0.576,-1.232 0.733,-1.557 0.164,-0.302 0.411,-0.74 0.735,-1.315 l 0.051,-0.091 -0.193,-0.273 z"
   id="path830"
   style="fill:#ffffff;fill-opacity:1" />
		<path
   d="m 152.515,52.718 c -0.528,0.506 -0.789,0.693 -1.269,0.908 -0.321,0.147 -0.692,0.258 -1.052,0.314 -0.703,0.131 -1.477,0.189 -2.508,0.189 -1.54,0 -2.132,-0.123 -2.528,-0.523 -0.295,-0.321 -0.396,-0.693 -0.45,-1.658 l -0.002,-0.046 c -0.028,-0.499 -0.049,-0.892 -0.049,-1.204 v -3.966 c 0.976,-0.045 1.407,-0.045 2.1,-0.045 0.856,0 1.729,0.026 2.676,0.081 0.268,0 0.664,0.026 1.212,0.08 l 0.198,0.02 -0.071,-0.755 0.027,-0.832 0.112,-0.78 -0.634,0.053 c -1.001,0.085 -1.504,0.127 -2.509,0.127 h -3.086 V 41.58 l 0.106,-3.174 c 0.786,-0.051 1.456,-0.07 1.833,-0.07 1.006,0 1.882,0.107 2.604,0.319 0.618,0.182 0.839,0.326 1.313,0.861 l 0.061,0.068 0.525,-0.089 0.214,-0.781 0.351,-1.115 0.448,-1.113 -0.989,0.031 c -1.235,0.04 -1.856,0.06 -4.472,0.06 h -3.796 l -2.318,-0.028 -0.666,1.481 h 0.526 c 0.706,0 1.057,0.217 1.177,0.729 0.127,0.503 0.187,1.398 0.187,2.815 l -0.027,9.037 c 0,2.488 -0.021,2.74 -0.19,3.968 -0.028,0.285 -0.084,0.708 -0.162,1.225 l -0.029,0.192 2.894,-0.055 3.658,0.052 c 1.452,0.021 2.422,0.041 2.919,0.05 0.225,0.005 0.353,0.007 0.386,0.007 0.161,0 0.397,0.015 0.708,0.033 l 0.492,0.029 0.221,-1.125 0.241,-1.063 0.283,-1.013 -0.583,-0.273 z"
   id="path832"
   style="fill:#ffffff;fill-opacity:1" />
		<path
   d="m 169.021,54.509 c -0.798,-0.802 -1.707,-1.995 -3.039,-3.99 l -2.761,-4.068 -0.516,-0.699 c 1.237,-0.656 1.96,-1.165 2.548,-1.788 0.734,-0.788 1.138,-1.89 1.138,-3.104 0,-1.402 -0.516,-2.597 -1.453,-3.367 -0.984,-0.784 -1.887,-0.999 -4.199,-0.999 -0.607,0 -1.235,0 -1.945,0.025 l -2.583,0.084 -2.296,-0.056 -0.668,1.483 h 0.529 c 0.703,0 1.056,0.217 1.178,0.727 0.126,0.515 0.186,1.41 0.186,2.817 l -0.027,9.037 c 0,2.655 -0.063,3.31 -0.356,5.192 l -0.032,0.203 0.961,-0.065 h 1.981 l 0.952,0.069 -0.075,-0.232 c -0.38,-1.176 -0.535,-2.665 -0.535,-5.138 l 0.027,-8.983 c 0,-1.817 0.02,-2.247 0.061,-3.103 l 0.012,-0.267 c 0.932,-0.124 1.339,-0.147 1.783,-0.147 2.19,0 3.498,1.213 3.498,3.246 0,1.537 -0.766,2.783 -2.001,3.252 -0.673,0.268 -1.147,0.316 -2.428,0.345 l -0.136,0.003 -0.13,0.778 -0.213,0.891 h 0.483 c 0.606,0 1.031,0.212 1.94,1.471 1.652,2.259 2.58,3.664 3.817,5.784 0.281,0.473 0.464,0.823 0.573,1.042 0.104,0.179 0.184,0.326 0.243,0.436 0.052,0.095 0.089,0.163 0.123,0.215 0.08,0.104 0.185,0.268 0.318,0.479 l 0.053,0.083 1.238,-0.087 2.079,-0.053 0.85,-0.037 0.055,-0.421 -0.076,-0.058 c -0.553,-0.418 -0.737,-0.577 -1.157,-1 z"
   id="path834"
   style="fill:#ffffff;fill-opacity:1" />
		<path
   d="m 177.821,44.509 c -1.845,-1.001 -2.447,-1.419 -3.026,-1.927 -0.574,-0.527 -0.877,-1.216 -0.877,-1.994 0,-1.659 1.284,-2.773 3.196,-2.773 1.567,0 2.5,0.479 3.444,1.77 l 0.059,0.08 0.562,-0.083 0.16,-0.677 0.404,-1.281 0.369,-0.927 -0.165,-0.055 c -1.442,-0.482 -2.016,-0.612 -3.069,-0.694 -0.316,-0.028 -0.653,-0.056 -0.999,-0.056 -3.954,0 -6.611,2.263 -6.611,5.63 0,1.307 0.472,2.518 1.332,3.413 0.772,0.774 1.178,1.039 3.617,2.36 1.613,0.876 2.351,1.414 2.924,2.128 0.436,0.541 0.675,1.244 0.675,1.982 0,1.867 -1.584,3.274 -3.686,3.274 -0.803,0 -1.732,-0.28 -2.372,-0.718 -0.493,-0.309 -0.722,-0.594 -1.204,-1.349 l -0.062,-0.096 -0.597,0.127 -0.509,2.04 -0.35,1.109 0.147,0.054 c 1.381,0.507 1.911,0.615 3.022,0.722 l 0.19,0.014 c 0.312,0.023 0.607,0.045 0.885,0.045 4.211,0 7.267,-2.657 7.267,-6.318 0,-1.175 -0.352,-2.253 -1.02,-3.123 -0.754,-0.958 -1.448,-1.459 -3.706,-2.677 z"
   id="path836"
   style="fill:#ffffff;fill-opacity:1" />
		<path
   d="m 187.817,50.641 0.032,-8.983 c 0,-1.308 0.02,-2.402 0.052,-2.928 0.029,-0.47 0.083,-1.134 0.164,-2.03 l 0.018,-0.192 -1.029,0.07 h -2.532 l -0.795,-0.032 -0.671,1.485 h 0.532 c 0.707,0 1.059,0.217 1.178,0.727 0.126,0.518 0.187,1.439 0.187,2.817 l -0.029,9.037 c 0,2.51 -0.027,2.778 -0.191,3.969 -0.026,0.267 -0.079,0.668 -0.161,1.225 l -0.03,0.202 0.956,-0.065 h 1.982 l 0.954,0.069 -0.076,-0.232 c -0.379,-1.169 -0.541,-2.706 -0.541,-5.139 z"
   id="path838"
   style="fill:#ffffff;fill-opacity:1" />
		<path
   d="m 205.315,37.559 c -1.232,-0.65 -2.6,-0.925 -4.874,-0.98 -0.684,-0.028 -1.508,-0.028 -2.463,-0.028 -0.561,0 -1.292,0.007 -2.024,0.014 -0.73,0.007 -1.46,0.014 -2.019,0.014 h -2.534 l -0.795,-0.032 -0.666,1.485 h 0.526 c 0.707,0 1.059,0.217 1.18,0.727 0.126,0.512 0.185,1.408 0.185,2.817 l -0.029,9.037 c 0,2.541 -0.027,2.805 -0.19,3.969 -0.025,0.265 -0.078,0.665 -0.162,1.225 l -0.03,0.202 0.958,-0.065 h 1.995 c 1.001,0 1.795,0.03 2.434,0.055 0.399,0.015 0.725,0.028 0.98,0.028 3.522,0 5.889,-0.701 7.914,-2.344 2.38,-1.901 3.745,-4.902 3.745,-8.234 0,-3.571 -1.544,-6.52 -4.131,-7.89 z m -6.954,16.544 c -1.071,0 -2.024,-0.091 -2.549,-0.244 -0.234,-0.069 -0.429,-0.187 -0.609,-0.364 -0.291,-0.317 -0.396,-0.705 -0.447,-1.659 l -0.008,-0.144 c -0.024,-0.407 -0.047,-0.791 -0.047,-1.107 l 0.029,-8.923 0.077,-3.168 0.858,-0.043 c 1.103,-0.056 1.769,-0.09 2.449,-0.09 3.212,0 4.904,0.559 6.241,2.062 1.206,1.37 1.869,3.4 1.869,5.715 -0.002,4.987 -2.941,7.965 -7.863,7.965 z"
   id="path840"
   style="fill:#ffffff;fill-opacity:1" />
		<path
   d="m 225.902,54.577 c -0.68,-1.367 -1.241,-2.639 -1.581,-3.584 L 219.79,38.88 c -0.463,-1.191 -0.571,-1.616 -0.842,-2.779 l -0.036,-0.152 -0.753,0.137 -1.878,0.29 -0.028,0.105 c -0.354,1.356 -0.486,1.818 -1.144,3.414 l -4.53,11.208 c -0.164,0.418 -0.412,0.988 -0.735,1.693 l -0.193,0.404 c -0.234,0.489 -0.418,0.875 -0.57,1.159 -0.135,0.271 -0.354,0.683 -0.652,1.23 l -0.047,0.086 0.212,0.325 0.825,-0.058 h 1.876 l 1.075,0.066 -0.064,-0.224 c -0.158,-0.551 -0.183,-0.81 -0.183,-1.215 0,-0.793 0.263,-1.92 0.781,-3.349 l 0.89,-2.396 1.794,-0.05 h 3.245 l 1.559,0.05 0.889,2.613 c 0.562,1.639 0.823,2.459 0.979,3.303 0.04,0.177 0.079,0.434 0.128,0.759 l 0.083,0.537 1.341,-0.093 h 1.736 l 1.166,0.071 -0.166,-0.269 c -0.295,-0.485 -0.402,-0.673 -0.646,-1.168 z m -6.193,-7.665 -1.194,0.047 h -2.645 l -1.382,-0.047 2.735,-7.241 z"
   id="path842"
   style="fill:#ffffff;fill-opacity:1" />
		<path
   d="m 241.368,37.559 c -1.233,-0.65 -2.602,-0.925 -4.876,-0.98 -0.687,-0.028 -1.511,-0.028 -2.465,-0.028 -0.559,0 -1.289,0.007 -2.02,0.014 -0.731,0.007 -1.461,0.014 -2.021,0.014 h -2.534 l -0.794,-0.032 -0.668,1.485 h 0.526 c 0.706,0 1.059,0.217 1.18,0.728 0.126,0.512 0.188,1.434 0.188,2.816 l -0.027,9.037 c 0,2.507 -0.027,2.775 -0.192,3.968 -0.026,0.272 -0.085,0.684 -0.163,1.226 l -0.028,0.201 0.957,-0.065 h 1.992 c 0.999,0 1.794,0.03 2.432,0.055 0.4,0.015 0.727,0.028 0.982,0.028 3.522,0 5.889,-0.701 7.91,-2.344 2.383,-1.902 3.749,-4.903 3.749,-8.234 0.001,-3.57 -1.542,-6.518 -4.128,-7.889 z m -6.957,16.544 c -1.068,0 -2.021,-0.091 -2.548,-0.244 -0.237,-0.07 -0.432,-0.187 -0.608,-0.364 -0.293,-0.316 -0.394,-0.688 -0.448,-1.658 l -0.015,-0.267 c -0.021,-0.36 -0.041,-0.701 -0.041,-0.985 l 0.03,-8.923 0.078,-3.168 0.849,-0.042 c 1.106,-0.057 1.774,-0.09 2.457,-0.09 3.215,0 4.906,0.559 6.24,2.062 1.206,1.372 1.871,3.401 1.871,5.715 0,4.986 -2.94,7.964 -7.865,7.964 z"
   id="path844"
   style="fill:#ffffff;fill-opacity:1" />
		<path
   d="m 263.448,40.109 c -0.916,-0.48 -1.97,-0.692 -3.637,-0.732 -0.509,-0.02 -1.121,-0.02 -1.83,-0.02 -0.416,0 -0.958,0.005 -1.5,0.01 -0.541,0.005 -1.082,0.01 -1.497,0.01 h -1.881 l -0.616,-0.024 -0.534,1.188 h 0.458 c 0.625,0 0.771,0.256 0.832,0.507 0.095,0.375 0.139,1.037 0.139,2.083 l -0.023,6.703 c 0,1.842 -0.016,2.061 -0.141,2.94 -0.02,0.204 -0.061,0.507 -0.12,0.906 l -0.031,0.202 0.762,-0.049 h 1.478 c 0.744,0 1.334,0.022 1.808,0.04 0.297,0.011 0.538,0.021 0.728,0.021 2.624,0 4.388,-0.523 5.896,-1.749 1.778,-1.414 2.798,-3.652 2.798,-6.141 -0.002,-2.67 -1.155,-4.873 -3.089,-5.895 z m -5.181,12.268 c -0.804,0 -1.506,-0.065 -1.877,-0.173 -0.173,-0.052 -0.312,-0.136 -0.434,-0.258 -0.211,-0.231 -0.284,-0.5 -0.323,-1.201 l -0.016,-0.295 c -0.013,-0.233 -0.024,-0.448 -0.024,-0.634 l 0.023,-6.624 0.055,-2.313 0.752,-0.036 c 0.716,-0.035 1.188,-0.058 1.661,-0.058 2.402,0 3.606,0.396 4.598,1.513 0.889,1.012 1.378,2.508 1.378,4.213 0,3.673 -2.166,5.866 -5.793,5.866 z"
   id="path846"
   style="fill:#ffffff;fill-opacity:1" />
		<path
   d="m 276.207,51.364 c -0.385,0.369 -0.574,0.505 -0.925,0.663 -0.243,0.111 -0.511,0.192 -0.777,0.235 -0.518,0.096 -1.088,0.139 -1.852,0.139 -1.112,0 -1.562,-0.092 -1.847,-0.374 -0.209,-0.232 -0.281,-0.502 -0.321,-1.204 l -0.012,-0.235 c -0.015,-0.275 -0.027,-0.503 -0.027,-0.693 v -2.9 c 0.695,-0.034 1.013,-0.034 1.517,-0.034 0.596,0 1.224,0.02 1.985,0.062 0.193,0 0.487,0.02 0.9,0.062 l 0.2,0.02 -0.062,-0.611 0.018,-0.61 0.094,-0.63 -0.52,0.043 c -0.744,0.063 -1.117,0.094 -1.864,0.094 h -2.248 v -2.253 l 0.079,-2.318 c 0.516,-0.034 1.01,-0.055 1.315,-0.055 0.719,0 1.384,0.083 1.922,0.239 0.451,0.134 0.612,0.239 0.961,0.626 l 0.062,0.068 0.43,-0.078 0.429,-1.424 0.356,-0.887 -0.781,0.024 c -0.948,0.03 -1.382,0.044 -3.333,0.044 h -2.816 l -1.748,-0.021 -0.535,1.185 h 0.459 c 0.628,0 0.772,0.255 0.831,0.506 0.094,0.381 0.14,1.062 0.14,2.083 l -0.021,6.703 c 0,1.88 -0.024,2.062 -0.143,2.939 -0.021,0.204 -0.06,0.507 -0.123,0.905 l -0.031,0.194 2.202,-0.04 2.711,0.036 c 1.084,0.017 1.806,0.032 2.173,0.04 0.163,0.004 0.258,0.006 0.283,0.006 0.125,0 0.313,0.012 0.566,0.027 l 0.358,0.021 0.169,-0.872 0.182,-0.785 0.214,-0.785 -0.486,-0.233 z"
   id="path848"
   style="fill:#ffffff;fill-opacity:1" />
		<path
   d="m 301.902,52.917 c -1.24,0.91 -1.746,1.119 -3.094,1.465 -1.083,0.256 -1.963,0.375 -2.771,0.375 -5.182,0 -8.664,-3.91 -8.664,-9.729 0,-5.631 3.129,-9.129 8.165,-9.129 2.473,0 4.142,0.722 5.579,2.413 l 0.049,0.058 h 0.643 l 0.286,-1.066 0.379,-1.264 0.398,-1.205 -0.157,-0.051 c -1.474,-0.479 -2.083,-0.641 -3.276,-0.796 -0.955,-0.132 -1.804,-0.194 -2.673,-0.194 -3.945,0 -6.864,0.909 -9.188,2.862 -2.544,2.165 -4.002,5.378 -4.002,8.815 0,4.517 2.339,8.608 5.958,10.421 1.583,0.8 3.627,1.223 5.909,1.223 0.963,0 2.232,-0.086 3.233,-0.22 l 0.044,-0.007 c 0.737,-0.124 1.32,-0.222 2.785,-0.6 l 0.091,-0.023 0.307,-1.069 0.346,-1.038 0.327,-0.876 -0.574,-0.435 z"
   id="path850"
   style="fill:#ffffff;fill-opacity:1" />
		<path
   d="m 313.225,35.811 c -5.916,0 -10.377,4.545 -10.377,10.573 0,6.063 3.919,10.298 9.531,10.298 6.201,0 10.701,-4.538 10.701,-10.791 0,-6.123 -3.868,-10.08 -9.855,-10.08 z m -0.219,18.977 c -4.019,0 -6.826,-3.659 -6.826,-8.897 0,-4.974 2.68,-8.187 6.826,-8.187 3.972,0 6.746,3.682 6.746,8.954 0,4.939 -2.648,8.13 -6.746,8.13 z"
   id="path852"
   style="fill:#ffffff;fill-opacity:1" />
		<path
   d="m 330.534,44.509 c -1.844,-1 -2.445,-1.419 -3.024,-1.927 -0.572,-0.526 -0.875,-1.216 -0.875,-1.994 0,-1.659 1.283,-2.773 3.192,-2.773 1.567,0 2.501,0.479 3.446,1.77 l 0.059,0.08 0.562,-0.083 0.164,-0.677 0.403,-1.283 0.361,-0.926 -0.163,-0.055 c -1.435,-0.482 -2.008,-0.612 -3.066,-0.694 -0.301,-0.027 -0.65,-0.056 -0.996,-0.056 -3.955,0 -6.612,2.263 -6.612,5.63 0,1.308 0.473,2.519 1.333,3.413 0.764,0.769 1.169,1.034 3.614,2.361 1.609,0.875 2.348,1.413 2.925,2.129 0.437,0.54 0.678,1.244 0.678,1.981 0,1.867 -1.585,3.274 -3.687,3.274 -0.809,0 -1.737,-0.28 -2.372,-0.718 -0.494,-0.312 -0.734,-0.61 -1.204,-1.349 l -0.062,-0.096 -0.597,0.127 -0.513,2.04 -0.35,1.109 0.147,0.054 c 1.383,0.507 1.914,0.615 3.024,0.722 l 0.189,0.014 c 0.312,0.023 0.607,0.045 0.889,0.045 4.209,0 7.263,-2.657 7.263,-6.318 0,-1.174 -0.352,-2.253 -1.018,-3.123 -0.758,-0.96 -1.452,-1.461 -3.71,-2.677 z"
   id="path854"
   style="fill:#ffffff;fill-opacity:1" />
		<path
   d="m 345.655,50.641 0.027,-9.06 0.101,-3.271 c 2.049,0.028 2.51,0.051 3.369,0.161 0.41,0.059 0.776,0.146 1.118,0.267 0.51,0.181 0.736,0.352 1.25,0.846 l 0.054,0.051 0.554,-0.044 0.155,-0.801 0.299,-1.174 0.374,-1.125 -2.255,0.047 c -2.491,0.051 -4.644,0.096 -6.49,0.096 -1.844,0 -3.909,-0.047 -6.3,-0.102 l -1.774,-0.04 -0.093,1.08 -0.165,1.27 -0.07,0.776 0.593,0.04 0.052,-0.049 c 0.476,-0.448 0.713,-0.608 1.204,-0.816 0.82,-0.33 1.58,-0.432 3.383,-0.455 0.173,0 0.379,-0.005 0.618,-0.011 0.291,-0.007 0.632,-0.016 1.023,-0.018 0.009,0.28 0.016,0.537 0.021,0.766 0.008,0.341 0.015,0.623 0.029,0.832 0.028,0.851 0.028,1.404 0.028,1.669 l -0.028,9.035 -0.002,0.125 c -0.024,2.409 -0.027,2.661 -0.189,3.845 -0.022,0.228 -0.073,0.625 -0.187,1.219 l -0.04,0.208 1.022,-0.064 h 1.979 l 0.928,0.07 -0.076,-0.234 c -0.368,-1.124 -0.512,-2.565 -0.512,-5.139 z"
   id="path856"
   style="fill:#ffffff;fill-opacity:1" />
		<path
   d="m 366.064,54.577 c -0.684,-1.376 -1.243,-2.648 -1.578,-3.584 l -4.53,-12.113 c -0.455,-1.175 -0.564,-1.604 -0.843,-2.779 l -0.036,-0.152 -1.947,0.329 -0.683,0.097 -0.027,0.106 c -0.35,1.341 -0.479,1.8 -1.143,3.414 l -4.533,11.208 c -0.138,0.345 -0.377,0.92 -0.736,1.694 l -0.115,0.243 c -0.266,0.561 -0.475,1.004 -0.646,1.319 -0.104,0.208 -0.301,0.591 -0.651,1.229 l -0.049,0.088 0.218,0.324 0.823,-0.058 h 1.872 l 1.077,0.066 -0.062,-0.223 c -0.159,-0.566 -0.187,-0.833 -0.187,-1.216 0,-0.79 0.265,-1.917 0.785,-3.349 l 0.887,-2.396 1.798,-0.05 h 3.247 l 1.549,0.05 0.894,2.614 c 0.545,1.584 0.815,2.437 0.977,3.304 0.056,0.239 0.109,0.609 0.186,1.121 l 0.025,0.174 1.342,-0.093 h 1.738 l 1.163,0.071 -0.164,-0.269 c -0.303,-0.495 -0.406,-0.68 -0.651,-1.169 z m -6.188,-7.665 -1.195,0.047 h -2.644 l -1.382,-0.047 2.734,-7.241 z"
   id="path858"
   style="fill:#ffffff;fill-opacity:1" />
		<path
   d="m 388.522,55.026 c -0.936,-0.938 -1.987,-2.315 -3.517,-4.603 l -3.185,-4.703 -0.614,-0.828 c 1.445,-0.768 2.285,-1.354 2.966,-2.068 0.842,-0.912 1.306,-2.179 1.306,-3.569 0,-1.609 -0.591,-2.984 -1.667,-3.874 -1.131,-0.897 -2.17,-1.143 -4.835,-1.143 -0.699,0 -1.422,0 -2.242,0.031 l -2.987,0.097 -2.634,-0.065 -0.749,1.663 h 0.572 c 0.827,0 1.241,0.255 1.383,0.857 0.148,0.59 0.219,1.626 0.219,3.259 l -0.033,10.436 c 0,2.922 -0.054,3.708 -0.408,6.001 l -0.032,0.205 1.077,-0.082 h 2.287 l 1.067,0.086 -0.076,-0.234 c -0.44,-1.368 -0.621,-3.091 -0.621,-5.947 l 0.029,-10.372 c 0,-2.087 0.024,-2.583 0.072,-3.57 l 0.017,-0.346 c 1.086,-0.141 1.56,-0.167 2.081,-0.167 2.544,0 4.062,1.408 4.062,3.766 0,1.79 -0.891,3.238 -2.326,3.78 -0.776,0.312 -1.326,0.37 -2.812,0.402 l -0.136,0.003 -0.146,0.883 -0.238,0.999 h 0.524 c 0.799,0 1.308,0.382 2.268,1.705 1.919,2.639 2.989,4.262 4.405,6.681 0.314,0.53 0.528,0.941 0.658,1.203 0.112,0.192 0.199,0.352 0.267,0.475 0.069,0.128 0.12,0.219 0.157,0.273 0.085,0.113 0.199,0.285 0.37,0.559 l 0.053,0.084 1.413,-0.104 2.399,-0.062 0.957,-0.036 0.067,-0.456 -0.078,-0.059 c -0.623,-0.466 -0.836,-0.65 -1.34,-1.16 z"
   id="path860"
   style="fill:#ffffff;fill-opacity:1" />
		<path
   d="m 394.449,50.641 0.027,-8.983 c 0,-1.457 0.026,-2.468 0.051,-2.929 0.025,-0.429 0.075,-1.036 0.169,-2.029 l 0.018,-0.192 -1.029,0.07 h -2.537 l -0.791,-0.032 -0.67,1.485 h 0.529 c 0.705,0 1.057,0.217 1.177,0.728 0.128,0.509 0.188,1.404 0.188,2.816 l -0.026,9.037 c 0,2.522 -0.027,2.789 -0.192,3.969 -0.022,0.245 -0.072,0.622 -0.162,1.225 l -0.029,0.202 0.955,-0.065 h 1.985 l 0.948,0.069 -0.075,-0.232 c -0.381,-1.179 -0.536,-2.668 -0.536,-5.139 z"
   id="path862"
   style="fill:#ffffff;fill-opacity:1" />
		<path
   d="m 407.119,37.977 c 2.134,0 3.575,0.624 4.82,2.085 l 0.049,0.058 h 0.579 l 0.251,-0.941 0.328,-1.097 0.354,-1.062 -0.157,-0.051 c -1.261,-0.412 -1.787,-0.553 -2.843,-0.692 -0.824,-0.113 -1.56,-0.167 -2.314,-0.167 -3.419,0 -5.953,0.789 -7.974,2.484 -2.205,1.882 -3.469,4.671 -3.469,7.651 0,3.916 2.027,7.466 5.166,9.045 1.381,0.692 3.153,1.059 5.128,1.059 0.855,0 1.958,-0.076 2.812,-0.193 0.636,-0.104 1.138,-0.187 2.446,-0.522 l 0.091,-0.023 0.27,-0.934 0.295,-0.902 0.291,-0.776 -0.522,-0.393 -0.099,0.072 c -1.074,0.782 -1.511,0.963 -2.671,1.264 -0.951,0.223 -1.711,0.327 -2.394,0.327 -4.475,0 -7.481,-3.378 -7.481,-8.407 -10e-4,-4.864 2.698,-7.885 7.044,-7.885 z"
   id="path864"
   style="fill:#ffffff;fill-opacity:1" />
		<path
   d="m 431.872,55.744 c -0.297,-0.483 -0.399,-0.669 -0.648,-1.167 -0.675,-1.353 -1.234,-2.625 -1.576,-3.584 L 425.115,38.88 c -0.454,-1.173 -0.563,-1.602 -0.84,-2.779 l -0.036,-0.152 -1.951,0.329 -0.682,0.097 -0.027,0.106 c -0.346,1.338 -0.476,1.795 -1.142,3.413 l -4.533,11.208 c -0.173,0.442 -0.428,1.029 -0.733,1.693 l -0.028,0.06 c -0.307,0.645 -0.549,1.155 -0.736,1.503 -0.149,0.302 -0.381,0.739 -0.65,1.229 l -0.048,0.087 0.215,0.326 0.821,-0.058 h 1.877 l 1.076,0.066 -0.063,-0.223 c -0.156,-0.548 -0.182,-0.807 -0.182,-1.216 0,-0.807 0.262,-1.934 0.777,-3.349 l 0.892,-2.396 1.796,-0.05 h 3.245 l 1.551,0.05 0.893,2.613 c 0.558,1.629 0.817,2.447 0.977,3.304 0.042,0.184 0.082,0.444 0.135,0.779 l 0.082,0.516 1.339,-0.093 h 1.737 l 1.162,0.071 z m -6.84,-8.832 -1.192,0.047 h -2.643 l -1.384,-0.047 2.735,-7.241 z"
   id="path866"
   style="fill:#ffffff;fill-opacity:1" />
	</g>
</svg>
